<?xml version="1.0" encoding="utf-8"?>
<!-- Generator: Adobe Illustrator 17.0.0, SVG Export Plug-In . SVG Version: 6.00 Build 0)  -->
<!DOCTYPE svg PUBLIC "-//W3C//DTD SVG 1.1//EN" "http://www.w3.org/Graphics/SVG/1.1/DTD/svg11.dtd">
<svg version="1.1" id="Calque_1" xmlns="http://www.w3.org/2000/svg" xmlns:xlink="http://www.w3.org/1999/xlink" x="0px" y="0px"
	 width="1000px" height="1000px" viewBox="0 0 1000 1000" enable-background="new 0 0 1000 1000" xml:space="preserve">
<g>
	<path d="M350.001,879.807c-3.893,0-7.761-1.092-11.096-3.23c-5.564-3.566-8.906-9.571-8.906-16.001V139.424
		c0-7.462,4.489-14.25,11.517-17.415s15.325-2.136,21.287,2.642l300,240.384c5.373,4.305,8.017,10.997,6.972,17.647
		c-1.045,6.65-5.627,12.292-12.083,14.878L388.161,505.545l274.643,220.066c5.373,4.305,8.017,10.997,6.972,17.647
		c-1.045,6.65-5.627,12.292-12.083,14.878l-300,120.192C355.219,879.319,352.604,879.807,350.001,879.807z M370,541.059V831.73
		l241.839-96.891L370,541.059z M370,180.482v290.672l241.839-96.891L370,180.482z"/>
	<path d="M799.999,999.999H200c-11.045,0-20-8.61-20-19.231V19.231c0-0.01,0-0.02,0-0.031c0-0.003,0-0.006,0-0.009
		c0-0.003,0-0.007,0-0.009c0-0.001,0-0.002,0-0.002c0-0.003,0-0.006,0-0.009c0-0.008,0-0.016,0-0.025c0-0.001,0-0.002,0-0.003
		c0.022-4.784,1.86-9.153,4.886-12.507c0.804-0.893,1.695-1.716,2.667-2.458c0.003-0.002,0.007-0.005,0.01-0.008
		c0.001-0.001,0.002-0.002,0.003-0.003c3.164-2.418,7.108-3.933,11.41-4.142c0.376-0.018,0.755-0.031,1.128-0.025H800
		c5.306,0,10.395,2.027,14.146,5.635s5.856,8.502,5.854,13.604l-0.107,238.393c0.07,0.655,0.106,1.317,0.106,1.984v721.153
		C819.999,991.389,811.045,999.999,799.999,999.999z M520,961.538h259.999V639.423H520V961.538z M220,961.538h224.759L220,781.443
		V961.538z M220,731.377L480,939.71V623.354c-0.181-1.043-0.273-2.105-0.272-3.176l0.25-331.708L220,392.629V731.377z M520,600.961
		h259.737l0.15-332.428L492.759,38.462l-237.519,0l257.003,205.933c4.73,3.517,7.776,9.027,7.776,15.221
		c0,0.291-0.007,0.58-0.021,0.868V600.961z M220,60.289v290.672l241.839-96.891L220,60.289z M555.24,38.462l224.67,180.024
		l0.081-180.024H555.24z"/>
</g>
<polyline fill="none" stroke="#000000" stroke-width="40" stroke-linejoin="round" stroke-miterlimit="10" points="800,1000 800,0 
	198.977,0.025 198.977,1000.025 "/>
</svg>
