<?xml version="1.0" encoding="utf-8"?>
<!-- Generator: Adobe Illustrator 17.0.0, SVG Export Plug-In . SVG Version: 6.00 Build 0)  -->
<!DOCTYPE svg PUBLIC "-//W3C//DTD SVG 1.1//EN" "http://www.w3.org/Graphics/SVG/1.1/DTD/svg11.dtd">
<svg version="1.1" id="Calque_1" xmlns="http://www.w3.org/2000/svg" xmlns:xlink="http://www.w3.org/1999/xlink" x="0px" y="0px"
	 width="1000px" height="1000px" viewBox="0 0 1000 1000" enable-background="new 0 0 1000 1000" xml:space="preserve">
<g>
	<rect x="180" y="19.231" width="40" height="721.154"/>
	<path d="M799.999,1000c-11.046,0-20-8.61-20-19.231V268.623L487.196,34.004c-8.485-6.799-9.632-18.926-2.561-27.085
		s19.683-9.261,28.168-2.462l307.195,246.15v730.161C819.999,991.39,811.045,1000,799.999,1000z"/>
	<path d="M350.001,879.807c-3.893,0-7.761-1.092-11.096-3.23c-5.564-3.566-8.906-9.571-8.906-16.001V139.423
		c0-7.462,4.489-14.25,11.517-17.415c7.028-3.165,15.325-2.136,21.287,2.642l300,240.384c5.373,4.305,8.017,10.997,6.972,17.647
		c-1.045,6.65-5.627,12.292-12.083,14.878L388.161,505.545l274.643,220.066c5.373,4.305,8.017,10.997,6.972,17.647
		s-5.627,12.292-12.083,14.878l-300,120.192C355.219,879.319,352.604,879.807,350.001,879.807z M370,541.059v290.672l241.839-96.891
		L370,541.059z M370,180.482v290.672l241.839-96.891L370,180.482z"/>
	<path d="M500,1000c-11.045,0-20-8.61-20-19.231V639.423h-0.287L480,259.601l40,0.028v341.332h279.729c11.046,0,20,8.61,20,19.231
		c0,10.621-8.954,19.231-20,19.231H520v341.346C520,991.39,511.046,1000,500,1000z"/>
	<path d="M487.196,995.542l-300-240.385c-4.56-3.654-7.196-9.066-7.196-14.773V19.231c0-7.462,4.489-14.25,11.517-17.415
		c7.027-3.165,15.325-2.135,21.287,2.642l300,240.385c5.373,4.305,8.017,10.997,6.972,17.647
		c-1.045,6.65-5.627,12.292-12.083,14.878L220,392.628v338.749l292.804,234.618L487.196,995.542z M220,60.289v290.673
		l241.839-96.891L220,60.289z"/>
</g>
</svg>
